# This file uses centimeters as units for non-parametric coordinates.

mtllib Puerta2.mtl
g default
v 2.697388 2.770020 0.032119
v 2.021851 0.179443 0.032118
v 2.021851 0.179443 -0.051985
v 3.977295 0.179443 -0.051985
v 3.977295 0.179443 0.032118
v 3.977295 5.015381 -0.051985
v 3.977295 5.015381 0.032120
v 3.977295 0.747681 0.032118
v 2.021851 5.015381 -0.051983
v 2.021851 5.015381 0.032120
v 2.697388 4.447266 0.032120
v 3.230835 4.447266 0.032120
v 3.230835 2.770020 0.032119
v 2.718384 4.436768 0.053144
v 2.021851 0.179443 0.030361
v 3.977295 0.179443 -0.053743
v 3.977295 0.179443 0.030360
v 3.977295 0.747681 -0.053743
v 3.977295 5.015381 -0.053741
v 3.977295 5.015381 0.030362
v 2.021851 5.015381 -0.053741
v 2.021851 5.015381 0.030362
v 2.021851 4.447266 -0.053741
v 2.021851 0.179443 -0.053743
v 3.230835 4.447266 -0.053741
v 3.230835 2.770020 -0.053741
v 3.209839 2.780518 -0.074768
v 2.697388 2.770020 -0.053741
v 2.697388 4.447266 -0.053741
v 3.209839 4.436768 -0.074768
vt 0.345600 0.771600
vt 0.000500 -3.304200
vt 0.000500 -3.304200
vt 0.999500 -3.304200
vt 0.999500 -3.304200
vt 0.999500 4.304200
vt 0.999500 4.304200
vt 0.999500 -2.410200
vt 0.000500 4.304200
vt 0.000500 4.304200
vt 0.345600 3.410200
vt 0.618200 3.410200
vt 0.618100 0.771600
vt 0.356300 3.393700
vt 0.000500 -3.304200
vt 0.999500 -3.304200
vt 0.999500 -3.304200
vt 0.999500 -2.410200
vt 0.999500 4.304200
vt 0.999500 4.304200
vt 0.000500 4.304200
vt 0.000500 4.304200
vt 0.000500 3.410200
vt 0.000500 -3.304200
vt 0.618200 3.410200
vt 0.618100 0.771600
vt 0.607400 0.788100
vt 0.345600 0.771600
vt 0.345600 3.410200
vt 0.607400 3.393700
vn 0.000000 -0.000000 1.000000
vn 0.000000 -0.000000 1.000000
vn 0.000000 -0.000000 1.000000
vn 0.000000 -1.000000 0.000000
vn 0.000000 -1.000000 0.000000
vn 0.000000 -1.000000 0.000000
vn 0.000000 -1.000000 0.000000
vn 0.000000 -1.000000 0.000000
vn 0.000000 -1.000000 0.000000
vn 1.000000 0.000000 0.000000
vn 1.000000 0.000000 0.000000
vn 1.000000 0.000000 0.000000
vn 1.000000 0.000000 0.000000
vn 1.000000 0.000000 0.000000
vn 1.000000 0.000000 0.000000
vn 1.000000 0.000000 0.000000
vn 1.000000 0.000000 0.000000
vn 1.000000 0.000000 0.000000
vn 0.000000 1.000000 0.000000
vn 0.000000 1.000000 0.000000
vn 0.000000 1.000000 0.000000
vn 0.000000 1.000000 0.000000
vn 0.000000 1.000000 0.000000
vn 0.000000 1.000000 0.000000
vn -1.000000 0.000000 0.000000
vn -1.000000 0.000000 0.000000
vn -1.000000 0.000000 0.000000
vn -1.000000 0.000000 0.000000
vn -1.000000 0.000000 0.000000
vn -1.000000 0.000000 0.000000
vn 0.000000 0.000000 1.000000
vn 0.000000 0.000000 1.000000
vn 0.000000 0.000000 1.000000
vn 0.000000 0.000000 1.000000
vn 0.000000 0.000000 1.000000
vn 0.000000 0.000000 1.000000
vn 0.000000 0.000000 1.000000
vn 0.000000 0.000000 1.000000
vn 0.000000 0.000000 1.000000
vn 0.000000 0.000000 1.000000
vn 0.000000 0.000000 1.000000
vn 0.000000 0.000000 1.000000
vn 0.000000 0.000000 1.000000
vn 0.000000 0.000000 1.000000
vn 0.000000 0.000000 1.000000
vn 0.000000 0.000000 1.000000
vn 0.000000 0.000000 1.000000
vn 0.000000 0.000000 1.000000
vn 0.000000 0.000000 1.000000
vn 0.000000 0.000000 1.000000
vn 0.000000 0.000000 1.000000
vn 0.000000 0.000000 1.000000
vn 0.000000 0.000000 1.000000
vn 0.000000 0.000000 1.000000
vn 0.000000 -1.000000 0.000000
vn 0.000000 -1.000000 0.000000
vn 0.000000 -1.000000 0.000000
vn -1.000000 0.000000 0.000000
vn -1.000000 0.000000 0.000000
vn -1.000000 0.000000 0.000000
vn -1.000000 0.000000 0.000000
vn -1.000000 0.000000 0.000000
vn -1.000000 0.000000 0.000000
vn 0.000000 1.000000 0.000000
vn 0.000000 1.000000 0.000000
vn 0.000000 1.000000 0.000000
vn 0.000000 1.000000 0.000000
vn 0.000000 1.000000 0.000000
vn 0.000000 1.000000 0.000000
vn -1.000000 0.000000 0.000000
vn -1.000000 0.000000 0.000000
vn -1.000000 0.000000 0.000000
vn 0.000000 0.000000 -1.000000
vn 0.000000 0.000000 -1.000000
vn 0.000000 0.000000 -1.000000
vn 0.000000 -1.000000 0.000000
vn 0.000000 -1.000000 0.000000
vn 0.000000 -1.000000 0.000000
vn 0.000000 -1.000000 0.000000
vn 0.000000 -1.000000 0.000000
vn 0.000000 -1.000000 0.000000
vn 1.000000 0.000000 0.000000
vn 1.000000 0.000000 0.000000
vn 1.000000 0.000000 0.000000
vn 1.000000 0.000000 0.000000
vn 1.000000 0.000000 0.000000
vn 1.000000 0.000000 0.000000
vn 1.000000 0.000000 0.000000
vn 1.000000 0.000000 0.000000
vn 1.000000 0.000000 0.000000
vn 0.000000 1.000000 0.000000
vn 0.000000 1.000000 0.000000
vn 0.000000 1.000000 0.000000
vn 0.000000 1.000000 0.000000
vn 0.000000 1.000000 0.000000
vn 0.000000 1.000000 0.000000
vn -1.000000 0.000000 0.000000
vn -1.000000 0.000000 0.000000
vn -1.000000 0.000000 0.000000
vn -1.000000 0.000000 0.000000
vn -1.000000 0.000000 0.000000
vn -1.000000 0.000000 0.000000
vn -1.000000 0.000000 0.000000
vn -1.000000 0.000000 0.000000
vn -1.000000 0.000000 0.000000
vn 0.000000 0.000000 -1.000000
vn 0.000000 0.000000 -1.000000
vn 0.000000 0.000000 -1.000000
vn 0.000000 0.000000 -1.000000
vn 0.000000 0.000000 -1.000000
vn 0.000000 0.000000 -1.000000
vn 0.000000 0.000000 -1.000000
vn 0.000000 0.000000 -1.000000
vn 0.000000 0.000000 -1.000000
vn 0.000000 0.000000 -1.000000
vn 0.000000 0.000000 -1.000000
vn 0.000000 0.000000 -1.000000
vn 0.000000 0.000000 -1.000000
vn 0.000000 0.000000 -1.000000
vn 0.000000 0.000000 -1.000000
vn 0.000000 0.000000 -1.000000
vn 0.000000 0.000000 -1.000000
vn 0.000000 0.000000 -1.000000
vn 0.000000 0.000000 -1.000000
vn 0.000000 0.000000 -1.000000
vn 0.000000 0.000000 -1.000000
vn 0.000000 0.000000 -1.000000
vn 0.000000 0.000000 -1.000000
vn 0.000000 0.000000 -1.000000
vn 0.000000 0.000000 -1.000000
vn 0.000000 0.000000 -1.000000
vn 0.000000 0.000000 -1.000000
vn 0.000000 0.000000 -1.000000
vn 0.000000 0.000000 -1.000000
vn 0.000000 0.000000 -1.000000
vn 0.000000 -1.000000 0.000000
vn 0.000000 -1.000000 0.000000
vn 0.000000 -1.000000 0.000000
vn 1.000000 0.000000 0.000000
vn 1.000000 0.000000 0.000000
vn 1.000000 0.000000 0.000000
vn 0.000000 -1.000000 0.000000
vn 0.000000 -1.000000 0.000000
vn 0.000000 -1.000000 0.000000
vn 1.000000 0.000000 0.000000
vn 1.000000 0.000000 0.000000
vn 1.000000 0.000000 0.000000
vn 0.000000 1.000000 0.000000
vn 0.000000 1.000000 0.000000
vn 0.000000 1.000000 0.000000
vn 0.747012 0.664811 0.000000
vn 1.000000 0.000000 0.000000
vn 0.695158 0.718857 0.000000
vn 0.695158 0.718857 0.000000
vn 0.000000 1.000000 0.000000
vn 0.747012 0.664811 0.000000
s off
g Puertas_Cristalería:Box011
usemtl initialShadingGroup
f 1/1/1 2/2/2 13/13/3
f 3/3/4 4/4/5 5/5/6
f 5/5/7 2/2/8 3/3/9
f 4/4/10 6/6/11 7/7/12
f 4/4/13 7/7/14 8/8/15
f 4/4/16 8/8/17 5/5/18
f 6/6/19 9/9/20 10/10/21
f 10/10/22 7/7/23 6/6/24
f 9/9/25 3/3/26 2/2/27
f 9/9/28 2/2/29 10/10/30
f 7/7/31 10/10/32 11/11/33
f 7/7/34 11/11/35 12/12/36
f 2/2/37 5/5/38 8/8/39
f 1/1/40 10/10/41 2/2/42
f 1/1/43 11/11/44 10/10/45
f 8/8/46 7/7/47 12/12/48
f 12/12/49 13/13/50 8/8/51
f 13/13/52 2/2/53 8/8/54
f 14/14/55 30/30/56 12/12/57
f 30/30/58 27/27/59 13/13/60
f 13/13/61 12/12/62 30/30/63
f 1/1/64 13/13/65 27/27/66
f 12/12/67 11/11/68 14/14/69
f 1/1/70 14/14/71 11/11/72
f 26/26/73 24/24/74 28/28/75
f 15/15/76 24/24/77 16/16/78
f 16/16/79 17/17/80 15/15/81
f 17/17/82 16/16/83 18/18/84
f 17/17/85 18/18/86 19/19/87
f 17/17/88 19/19/89 20/20/90
f 20/20/91 19/19/92 21/21/93
f 21/21/94 22/22/95 20/20/96
f 22/22/97 21/21/98 23/23/99
f 22/22/100 23/23/101 24/24/102
f 22/22/103 24/24/104 15/15/105
f 23/23/106 21/21/107 19/19/108
f 29/29/109 23/23/110 19/19/111
f 25/25/112 29/29/113 19/19/114
f 18/18/115 16/16/116 24/24/117
f 24/24/118 23/23/119 28/28/120
f 23/23/121 29/29/122 28/28/123
f 18/18/124 26/26/125 25/25/126
f 25/25/127 19/19/128 18/18/129
f 18/18/130 24/24/131 26/26/132
f 30/30/133 26/26/134 27/27/135
f 14/14/136 29/29/137 30/30/138
f 29/29/139 14/14/140 28/28/141
f 27/27/142 26/26/143 28/28/144
f 30/30/145 25/25/146 26/26/147
f 25/25/148 30/30/149 29/29/150
f 28/28/151 14/14/152 1/1/153
f 1/1/154 27/27/155 28/28/156
